<?xml version="1.0" encoding="iso-8859-1"?>
<!-- Uploaded to: SVG Repo, www.svgrepo.com, Generator: SVG Repo Mixer Tools -->
<svg fill="#0084ff" height="20px" width="20px" version="1.1" id="Layer_1" xmlns="http://www.w3.org/2000/svg" xmlns:xlink="http://www.w3.org/1999/xlink" 
	 viewBox="0 0 512 512" xml:space="preserve">
<g transform="translate(1 1)">
	<g>
		<g>
			<path d="M186.733,391.533c-9.387,0-17.067,7.68-17.067,17.067s7.68,17.067,17.067,17.067s17.067-7.68,17.067-17.067
				S196.12,391.533,186.733,391.533z"/>
			<path d="M408.6,391.533c-9.387,0-17.067,7.68-17.067,17.067s7.68,17.067,17.067,17.067s17.067-7.68,17.067-17.067
				S417.987,391.533,408.6,391.533z"/>
			<path d="M383,331.8h-17.067c-5.12,0-8.533,3.413-8.533,8.533s3.413,8.533,8.533,8.533H383c5.12,0,8.533-3.413,8.533-8.533
				S388.12,331.8,383,331.8z"/>
			<path d="M255,246.467H135.533c-5.12,0-8.533,3.413-8.533,8.533s3.413,8.533,8.533,8.533H255c5.12,0,8.533-3.413,8.533-8.533
				S260.12,246.467,255,246.467z"/>
			<path d="M139.8,102.253c-4.267-2.56-9.387-1.707-11.947,2.56L82.627,173.08l-26.453-26.453c-3.413-3.413-8.533-3.413-11.947,0
				s-3.413,8.533,0,11.947l34.133,34.133c1.707,1.707,3.413,2.56,5.973,2.56c3.413,0,5.973-1.707,6.827-4.267l51.2-76.8
				C144.92,109.933,144.067,104.813,139.8,102.253z"/>
			<path d="M499.907,313.88l-33.28-13.653l-21.333-85.333c-2.56-11.947-12.8-19.627-24.747-19.627h-80.213v-25.6
				c0-9.387-7.68-17.067-17.067-17.067H186.348c0.25-2.81,0.385-5.655,0.385-8.533c0-52.053-41.813-93.867-93.867-93.867
				C40.813,50.2-1,92.013-1,144.067c0,49.175,37.319,89.204,85.333,93.481v60.119v102.4c0,9.387,7.68,17.067,17.067,17.067h34.863
				c4.095,24.134,25.217,42.667,50.47,42.667s46.375-18.533,50.47-42.667H358.13c4.095,24.134,25.217,42.667,50.47,42.667
				c25.253,0,46.375-18.533,50.47-42.667h34.863c9.387,0,17.067-7.68,17.067-17.067v-69.973
				C511,322.413,506.733,316.44,499.907,313.88z M323.267,203.8v8.533c0,42.667-34.133,76.8-76.8,76.8H101.4v-51.2
				c7.334-0.815,14.48-2.445,21.316-4.802c13.123-4.362,24.935-11.528,34.735-20.798h114.616c5.12,0,8.533-3.413,8.533-8.533
				s-3.413-8.533-8.533-8.533H171.794c5.064-7.748,8.999-16.334,11.526-25.6h139.947V203.8z M16.067,144.067
				c0-42.667,34.133-76.8,76.8-76.8c42.667,0,76.8,34.133,76.8,76.8c0,4.703-0.438,9.294-1.233,13.756
				c-0.199,0.504-0.361,1.038-0.474,1.604c-1.825,9.581-5.432,18.419-10.419,26.243c-0.283,0.442-0.555,0.891-0.847,1.326
				c-0.153,0.229-0.317,0.45-0.472,0.678c-0.538,0.783-1.082,1.562-1.648,2.323c-0.112,0.151-0.229,0.299-0.343,0.449
				c-0.619,0.821-1.251,1.631-1.902,2.425c-0.105,0.129-0.213,0.256-0.32,0.384c-0.666,0.802-1.348,1.591-2.046,2.364
				c-0.11,0.122-0.221,0.244-0.333,0.366c-0.022,0.024-0.045,0.046-0.066,0.07c-1.769,0.79-3.112,2.145-3.887,3.926
				c-0.278,0.262-0.548,0.533-0.83,0.791c-0.114,0.104-0.225,0.212-0.339,0.315c-0.821,0.743-1.66,1.467-2.513,2.174
				c-0.07,0.057-0.136,0.118-0.206,0.175c-0.909,0.748-1.837,1.475-2.781,2.181c-0.333,0.248-0.676,0.482-1.013,0.725
				c-0.57,0.412-1.141,0.825-1.723,1.222c-0.57,0.387-1.151,0.759-1.732,1.131c-0.355,0.228-0.708,0.459-1.067,0.682
				c-0.668,0.413-1.345,0.812-2.026,1.204c-0.272,0.157-0.544,0.314-0.818,0.468c-0.747,0.418-1.501,0.825-2.263,1.219
				c-0.198,0.103-0.397,0.203-0.597,0.304c-0.833,0.421-1.673,0.832-2.523,1.224c-0.087,0.04-0.175,0.078-0.262,0.118
				c-4.708,2.147-9.666,3.826-14.806,4.999c-0.274,0.062-0.547,0.129-0.823,0.188c-0.77,0.167-1.547,0.316-2.325,0.46
				c-0.43,0.079-0.861,0.157-1.293,0.229c-0.689,0.115-1.38,0.221-2.074,0.318c-0.557,0.077-1.117,0.146-1.678,0.211
				c-0.606,0.071-1.212,0.142-1.822,0.199c-0.72,0.067-1.445,0.116-2.17,0.163c-0.477,0.031-0.952,0.071-1.432,0.094
				c-1.225,0.057-2.456,0.092-3.696,0.092C50.2,220.867,16.067,186.733,16.067,144.067z M186.733,442.733
				c-18.773,0-34.133-15.36-34.133-34.133c0-18.773,15.36-34.133,34.133-34.133c18.773,0,34.133,15.36,34.133,34.133
				C220.867,427.373,205.507,442.733,186.733,442.733z M408.6,442.733c-18.773,0-34.133-15.36-34.133-34.133
				c0-18.773,15.36-34.133,34.133-34.133c18.773,0,34.133,15.36,34.133,34.133C442.733,427.373,427.373,442.733,408.6,442.733z
				 M493.933,400.067H459.07c-2.881-16.98-14.192-31.177-29.444-38.106c-0.338-0.155-0.674-0.314-1.017-0.462
				c-0.214-0.092-0.432-0.175-0.648-0.264c-0.553-0.229-1.109-0.453-1.672-0.662c-0.152-0.056-0.306-0.108-0.459-0.163
				c-0.625-0.226-1.256-0.442-1.893-0.644c-0.138-0.044-0.276-0.085-0.415-0.127c-0.648-0.199-1.302-0.387-1.962-0.56
				c-0.146-0.038-0.292-0.076-0.439-0.113c-0.648-0.164-1.301-0.316-1.96-0.455c-0.166-0.035-0.331-0.071-0.497-0.104
				c-0.636-0.128-1.277-0.242-1.922-0.346c-0.191-0.031-0.381-0.064-0.573-0.093c-0.621-0.093-1.248-0.17-1.877-0.24
				c-0.213-0.024-0.425-0.052-0.639-0.074c-0.629-0.062-1.263-0.107-1.899-0.146c-0.21-0.013-0.417-0.033-0.628-0.043
				c-0.837-0.041-1.68-0.065-2.529-0.065c-0.849,0-1.692,0.024-2.529,0.065c-0.21,0.01-0.418,0.03-0.628,0.043
				c-0.636,0.039-1.27,0.084-1.899,0.146c-0.214,0.021-0.426,0.05-0.639,0.074c-0.629,0.07-1.256,0.148-1.877,0.24
				c-0.192,0.029-0.382,0.062-0.574,0.093c-0.645,0.104-1.285,0.218-1.921,0.345c-0.167,0.034-0.332,0.069-0.498,0.104
				c-0.658,0.139-1.311,0.291-1.959,0.455c-0.146,0.037-0.293,0.074-0.439,0.113c-0.66,0.174-1.314,0.361-1.962,0.561
				c-0.138,0.042-0.276,0.083-0.414,0.127c-0.638,0.202-1.268,0.418-1.894,0.644c-0.152,0.055-0.305,0.107-0.457,0.163
				c-0.564,0.21-1.121,0.434-1.675,0.664c-0.215,0.089-0.432,0.172-0.645,0.263c-0.343,0.148-0.68,0.308-1.019,0.463
				c-15.25,6.93-26.561,21.126-29.441,38.105H237.203c-2.881-16.979-14.19-31.174-29.439-38.104
				c-0.34-0.156-0.677-0.316-1.021-0.464c-0.213-0.091-0.43-0.174-0.645-0.263c-0.554-0.229-1.111-0.453-1.675-0.664
				c-0.151-0.056-0.305-0.108-0.457-0.163c-0.626-0.226-1.257-0.442-1.894-0.644c-0.137-0.043-0.276-0.084-0.414-0.127
				c-0.648-0.199-1.302-0.387-1.962-0.561c-0.146-0.038-0.292-0.076-0.439-0.113c-0.648-0.164-1.301-0.316-1.96-0.455
				c-0.166-0.035-0.331-0.071-0.497-0.104c-0.636-0.128-1.277-0.242-1.922-0.346c-0.191-0.031-0.381-0.064-0.573-0.093
				c-0.621-0.093-1.248-0.17-1.877-0.24c-0.213-0.024-0.425-0.052-0.639-0.074c-0.629-0.062-1.263-0.107-1.899-0.146
				c-0.21-0.013-0.417-0.033-0.628-0.043c-0.837-0.041-1.68-0.065-2.529-0.065c-0.849,0-1.692,0.024-2.529,0.065
				c-0.21,0.01-0.418,0.03-0.628,0.043c-0.636,0.039-1.27,0.084-1.899,0.146c-0.214,0.021-0.426,0.05-0.639,0.074
				c-0.629,0.07-1.256,0.148-1.877,0.24c-0.192,0.029-0.382,0.062-0.573,0.093c-0.645,0.104-1.286,0.218-1.922,0.346
				c-0.166,0.033-0.332,0.069-0.497,0.104c-0.659,0.139-1.312,0.291-1.96,0.455c-0.146,0.037-0.293,0.074-0.439,0.113
				c-0.66,0.174-1.313,0.361-1.962,0.56c-0.138,0.042-0.277,0.083-0.415,0.127c-0.637,0.202-1.267,0.418-1.893,0.644
				c-0.153,0.055-0.307,0.107-0.459,0.163c-0.563,0.21-1.119,0.433-1.672,0.662c-0.216,0.089-0.434,0.172-0.648,0.264
				c-0.342,0.148-0.678,0.307-1.017,0.462c-15.252,6.929-26.563,21.126-29.444,38.106H101.4V306.2h145.067
				c52.053,0,93.867-41.813,93.867-93.867h80.213c4.267,0,7.68,3.413,8.533,6.827l19.44,78.507h-62.96
				c-5.973,0-11.093-5.12-11.093-11.093v-40.107c0-5.12-3.413-8.533-8.533-8.533s-8.533,3.413-8.533,8.533v40.107
				c0,15.36,12.8,28.16,28.16,28.16h70.827l37.547,14.507V400.067z"/>
		</g>
	</g>
</g>
</svg>